<?xml version="1.0" encoding="UTF-8"?><svg id="b" xmlns="http://www.w3.org/2000/svg" viewBox="0 0 598.8 598"><defs><style>.d{fill:#fff;}.e{fill:#405a70;}.f{fill:#1899b5;}</style></defs><g id="c"><g><path class="e" d="M299.4,0H0V299c0,165.1,134,299,299.4,299s299.4-133.9,299.4-299S464.8,0,299.4,0"/><path class="f" d="M89.1,90.9H12.3c-.8,0-1.4-.6-1.4-1.4V14c0-.8,.6-1.4,1.4-1.4H89.1c.8,0,1.4,.6,1.4,1.4V89.5c0,.8-.6,1.4-1.4,1.4"/><path class="d" d="M80.5,82.9H22.9c-.4,0-.8-.4-.8-.8V22.4c0-.4,.4-.8,.8-.8h57.6c.4,0,.8,.4,.8,.8v59.7c0,.4-.4,.8-.8,.8"/></g><rect class="f" x="30.8" y="46.5" width="19.1" height="7.8"/><rect class="f" x="30.4" y="57.7" width="23.6" height="5.9"/><rect class="f" x="30.4" y="67.4" width="21.3" height="5.7"/><polygon class="f" points="71 73.3 65.2 67.7 59.8 73.3 59.8 33.4 71 33.4 71 73.3"/><g><path class="e" d="M580.8,300.1c0,154.2-125.2,279.2-279.6,279.2S21.6,454.3,21.6,300.1,146.8,21,301.2,21s279.6,125,279.6,279.2"/><path class="d" d="M580.8,300.1h-2c0,76.5-31.1,145.8-81.3,196-50.2,50.2-119.6,81.2-196.3,81.2-76.7,0-146-31-196.3-81.2-50.2-50.2-81.3-119.4-81.3-196,0-76.5,31.1-145.8,81.3-196C155.2,54,224.5,22.9,301.2,22.9c76.7,0,146,31,196.3,81.2,50.2,50.2,81.3,119.4,81.3,196h4c0-155.3-126-281.1-281.5-281.1-155.5,0-281.5,125.9-281.5,281.1,0,155.3,126,281.1,281.5,281.1,155.5,0,281.5-125.9,281.5-281.1h-2Z"/><path class="d" d="M534.5,298.8c0,129.6-105.2,234.6-235,234.6s-235-105.1-235-234.6S169.7,64.1,299.5,64.1s235,105.1,235,234.6"/></g><path class="d" d="M77.7,151.9l4.5-6.5c.6-.9,1.3-1.7,2-2.4,.7-.7,1.5-1.2,2.3-1.5,.8-.3,1.7-.4,2.6-.3s1.9,.5,2.9,1.2c1,.7,1.8,1.5,2.2,2.3,.5,.8,.7,1.6,.7,2.5,0,.9-.2,1.7-.5,2.7-.4,.9-.9,1.8-1.5,2.7l-1.9,2.8,6.8,4.7-2.7,3.9-17.5-12.1Zm10.1,1.3l1.8-2.6c.2-.3,.4-.7,.6-1.1,.2-.4,.2-.7,.3-1.1s0-.7-.2-1.1c-.2-.3-.5-.7-.9-.9-.4-.3-.9-.5-1.3-.4-.4,0-.8,.1-1.2,.4-.4,.2-.7,.5-1,.9-.3,.4-.6,.7-.8,1.1l-1.4,2,4.1,2.9Z"/><path class="d" d="M89.7,135.1l5.2-6.4c.7-.8,1.4-1.6,2.2-2.2,.8-.6,1.6-1.1,2.4-1.3,.8-.3,1.7-.3,2.6,0,.9,.2,1.9,.7,2.8,1.5,1.2,1,1.9,2.1,2.2,3.3,.3,1.3,.1,2.6-.6,3.9l10.4,1.5-3.6,4.3-9.4-2-1.5,1.8,6.6,5.4-3,3.6-16.4-13.5Zm9.8,2l1.8-2.1c.3-.3,.5-.7,.8-1.1,.3-.4,.5-.8,.6-1.2s.1-.8,0-1.2c0-.4-.4-.8-.8-1.1-.4-.3-.8-.5-1.2-.6-.4,0-.8,0-1.1,.2-.3,.2-.7,.4-1,.7-.3,.3-.6,.6-.9,.9l-1.9,2.4,3.7,3.1Z"/><path class="d" d="M110.2,127c-1.2-1.2-2.1-2.5-2.7-3.8-.6-1.4-.9-2.8-.9-4.2,0-1.4,.3-2.8,.9-4.2,.6-1.4,1.5-2.6,2.6-3.8,1.2-1.2,2.4-2.1,3.8-2.7,1.3-.6,2.7-1,4.1-1,1.4,0,2.8,.2,4.2,.7s2.7,1.4,3.9,2.6c1.2,1.2,2.1,2.5,2.7,3.8,.6,1.4,.9,2.8,.9,4.2,0,1.4-.3,2.8-.9,4.2-.6,1.4-1.5,2.6-2.6,3.8-1.2,1.2-2.4,2.1-3.8,2.8s-2.7,1-4.1,1c-1.4,0-2.8-.2-4.2-.7-1.4-.6-2.7-1.4-3.9-2.6Zm3.4-3.5c.7,.7,1.5,1.2,2.3,1.6,.8,.4,1.6,.5,2.5,.5s1.7-.2,2.5-.5c.8-.3,1.6-.9,2.3-1.6,.7-.7,1.2-1.5,1.5-2.3,.3-.8,.5-1.6,.4-2.5,0-.8-.2-1.7-.6-2.5-.4-.8-.9-1.5-1.6-2.2-.7-.7-1.5-1.2-2.3-1.6-.8-.4-1.6-.5-2.5-.6-.8,0-1.7,.2-2.5,.5-.8,.3-1.6,.9-2.3,1.6-.7,.7-1.2,1.5-1.5,2.3-.3,.8-.5,1.6-.4,2.5,0,.8,.2,1.7,.6,2.5s.9,1.6,1.6,2.2Z"/><path class="d" d="M122.6,99.6l10.9-9.2,2.8,3.3-7.3,6.2,2.8,3.3,6.7-5.7,2.8,3.3-6.7,5.7,5.4,6.3-3.6,3-13.8-16.2Z"/><path class="d" d="M137.4,87.2l11.6-8.5,2.6,3.5-7.9,5.8,2.3,3.2,7.4-5.4,2.6,3.5-7.4,5.4,2.6,3.5,8.3-6.1,2.6,3.5-12.1,8.8-12.6-17.1Z"/><path class="d" d="M165.5,74.2c-.6-.2-1.2-.2-1.9,0-.7,.2-1.3,.4-1.7,.7-.3,.2-.6,.4-.8,.7-.3,.3-.5,.5-.7,.9-.2,.3-.3,.6-.3,1s0,.7,.3,1c.3,.5,.8,.8,1.4,.9,.6,0,1.3,0,2-.2,.7-.2,1.5-.4,2.4-.6,.8-.2,1.7-.4,2.5-.4,.9,0,1.7,.2,2.5,.5,.8,.4,1.5,1.1,2.2,2.1,.6,1,1,2,1.1,3,0,1,0,1.9-.3,2.8s-.8,1.7-1.5,2.5c-.7,.8-1.5,1.4-2.4,2-1.2,.7-2.4,1.2-3.6,1.5-1.2,.3-2.5,.3-3.9,0l.9-4.9c.7,.3,1.5,.4,2.3,.3,.8,0,1.5-.3,2.2-.8,.3-.2,.6-.4,.9-.7,.3-.3,.5-.6,.7-.9s.3-.6,.3-1c0-.3,0-.7-.3-1-.3-.5-.8-.8-1.4-.9-.6,0-1.3,0-2.1,.2-.8,.2-1.6,.4-2.4,.6-.9,.2-1.7,.4-2.6,.4-.9,0-1.7-.1-2.5-.5s-1.5-1-2.1-2c-.6-1-.9-1.9-1-2.9,0-1,0-1.9,.4-2.8,.3-.9,.8-1.7,1.5-2.5,.7-.8,1.5-1.4,2.3-2,1-.6,2.1-1.1,3.2-1.4,1.1-.3,2.3-.4,3.5-.2l-.9,4.7Z"/><path class="d" d="M181.6,65.2c-.6-.2-1.2-.3-1.9-.2-.7,.1-1.3,.3-1.8,.6-.3,.2-.6,.4-.9,.6-.3,.2-.5,.5-.7,.8-.2,.3-.3,.6-.4,1,0,.3,0,.7,.2,1,.3,.6,.7,.9,1.3,1,.6,0,1.3,0,2,0,.8-.1,1.6-.3,2.4-.5,.9-.2,1.7-.2,2.6-.2s1.7,.3,2.4,.7c.8,.4,1.4,1.2,2,2.3,.6,1,.8,2.1,.9,3,0,1-.2,1.9-.6,2.8-.4,.9-1,1.7-1.7,2.4-.7,.7-1.6,1.3-2.6,1.8-1.2,.6-2.4,1.1-3.7,1.2-1.2,.2-2.5,0-3.9-.3l1.2-4.8c.7,.3,1.5,.5,2.3,.5,.8,0,1.6-.2,2.2-.6,.3-.2,.7-.4,1-.7,.3-.3,.6-.5,.7-.8,.2-.3,.3-.6,.3-1,0-.3,0-.7-.2-1-.3-.6-.8-.9-1.4-1-.6,0-1.3,0-2.1,0s-1.6,.3-2.5,.4c-.9,.2-1.8,.2-2.6,.2-.9,0-1.7-.3-2.4-.7-.8-.4-1.4-1.1-2-2.2-.5-1-.8-2-.8-3,0-1,.2-1.9,.6-2.8,.4-.9,1-1.7,1.7-2.4,.7-.7,1.6-1.3,2.5-1.8,1.1-.6,2.2-1,3.3-1.2,1.2-.2,2.3-.2,3.5,0l-1.2,4.6Z"/><path class="d" d="M186.1,57.2l4.2-2,9,19.2-4.2,2-9-19.2Z"/><path class="d" d="M198.2,62.9c-.6-1.6-.9-3.1-.8-4.6,0-1.5,.4-2.9,1-4.1,.6-1.3,1.5-2.4,2.6-3.4,1.1-1,2.5-1.8,4-2.4,1.6-.6,3.1-.9,4.6-.9,1.5,0,2.9,.3,4.2,.8,1.3,.5,2.5,1.4,3.5,2.5,1,1.1,1.8,2.4,2.4,4,.6,1.6,.9,3.1,.8,4.6,0,1.5-.4,2.9-1,4.1-.6,1.3-1.5,2.4-2.6,3.4-1.1,1-2.5,1.8-4,2.4-1.6,.6-3.1,.9-4.6,.9-1.5,0-2.9-.3-4.2-.8-1.3-.5-2.5-1.4-3.5-2.4-1-1.1-1.8-2.4-2.4-4Zm4.5-1.7c.4,.9,.8,1.7,1.4,2.4s1.3,1.2,2,1.5c.8,.4,1.6,.6,2.5,.6,.9,0,1.8-.1,2.7-.5,.9-.4,1.7-.8,2.4-1.4s1.1-1.3,1.4-2.1c.3-.8,.5-1.6,.5-2.5,0-.9-.2-1.8-.5-2.7-.3-.9-.8-1.7-1.4-2.4-.6-.7-1.3-1.2-2-1.6-.8-.4-1.6-.6-2.5-.6-.9,0-1.8,.1-2.7,.5-.9,.4-1.7,.8-2.4,1.4-.6,.6-1.1,1.3-1.4,2.1-.3,.8-.5,1.6-.5,2.5,0,.9,.2,1.8,.5,2.7Z"/><path class="d" d="M220.9,43.2l6.1-1.6,12.5,11.9h0l-3.8-14.3,4.5-1.2,5.5,20.5-5.9,1.6-12.9-12.2h0l3.9,14.6-4.5,1.2-5.5-20.5Z"/><path class="d" d="M253.4,35.4l3.8-.7,12.8,19.3-5.2,.9-2.6-4.1-8.1,1.4-1,4.7-5.1,.9,5.4-22.5Zm2.8,5.8l-1.4,6.9,5.1-.9-3.7-6.1Z"/><path class="d" d="M270.5,32.9l4.7-.4,1.4,16.9,8.6-.7,.4,4.3-13.3,1.1-1.8-21.2Z"/><path class="d" d="M307.8,36.7c-.4-.5-.9-.9-1.5-1.1-.6-.2-1.3-.4-1.8-.4-.3,0-.7,0-1.1,0-.4,0-.7,.2-1,.4-.3,.2-.6,.4-.8,.7-.2,.3-.3,.6-.3,1,0,.6,.2,1.1,.7,1.5,.5,.3,1.1,.7,1.8,.9,.7,.3,1.5,.5,2.3,.8,.8,.3,1.6,.6,2.3,1.1s1.3,1.1,1.8,1.8c.5,.7,.7,1.7,.7,3,0,1.2-.3,2.2-.7,3.1-.5,.9-1.1,1.6-1.8,2.2-.8,.6-1.6,1-2.6,1.2-1,.3-2,.4-3.1,.4-1.4,0-2.7-.3-3.8-.7-1.2-.4-2.3-1.1-3.3-2.1l3.4-3.6c.5,.6,1.1,1.2,1.8,1.5,.7,.4,1.5,.6,2.3,.6,.4,0,.8,0,1.2-.1,.4,0,.7-.2,1.1-.4,.3-.2,.6-.4,.8-.7s.3-.6,.3-1c0-.6-.2-1.1-.7-1.5-.5-.4-1.1-.7-1.8-1-.7-.3-1.5-.5-2.4-.8-.9-.3-1.6-.6-2.4-1.1-.7-.5-1.3-1-1.8-1.8-.5-.7-.7-1.7-.7-2.9,0-1.1,.3-2.1,.7-3,.5-.9,1.1-1.6,1.8-2.1,.8-.6,1.6-1,2.6-1.3,1-.3,2-.4,3-.4,1.2,0,2.4,.2,3.5,.6,1.1,.4,2.1,1,3,1.8l-3.3,3.4Z"/><path class="d" d="M329.6,38.5c-.4-.6-.9-1.1-1.6-1.4-.6-.4-1.4-.6-2.3-.7-.9,0-1.7,0-2.5,.3-.8,.3-1.5,.7-2.1,1.2-.6,.6-1.1,1.2-1.5,2-.4,.8-.6,1.7-.7,2.7,0,1,0,1.9,.2,2.8,.2,.9,.6,1.6,1.1,2.3,.5,.7,1.1,1.2,1.8,1.6,.7,.4,1.5,.7,2.3,.7,1,0,1.8,0,2.6-.4,.8-.3,1.4-.8,2-1.5l3.6,3.3c-1,1.2-2.2,2-3.7,2.4-1.4,.5-2.9,.6-4.3,.5-1.7-.2-3.2-.6-4.5-1.2-1.3-.7-2.5-1.5-3.4-2.6-.9-1.1-1.6-2.3-2-3.7-.4-1.4-.6-3-.4-4.7,.2-1.7,.6-3.2,1.3-4.5,.7-1.3,1.6-2.4,2.7-3.3,1.1-.9,2.4-1.5,3.8-1.9,1.4-.4,3-.5,4.6-.3,.6,0,1.2,.2,1.9,.3,.6,.2,1.3,.4,1.9,.7s1.2,.7,1.7,1.1c.5,.5,1,1,1.4,1.6l-3.9,2.6Z"/><path class="d" d="M338.3,34.1l8.1,1.4c1.1,.2,2.1,.5,3,.8,.9,.4,1.7,.9,2.3,1.5,.6,.6,1.1,1.4,1.4,2.3,.3,.9,.3,1.9,0,3.2-.3,1.5-.9,2.7-1.8,3.6s-2.2,1.4-3.7,1.4l3.8,9.8-5.5-1-2.9-9.1-2.3-.4-1.5,8.4-4.6-.8,3.7-20.9Zm3.1,9.5l2.7,.5c.4,0,.9,.1,1.3,.2,.5,0,.9,0,1.3,0,.4,0,.8-.3,1.1-.5,.3-.3,.5-.7,.6-1.3,0-.5,0-1-.1-1.3-.2-.4-.4-.6-.7-.9-.3-.2-.7-.4-1.1-.5-.4-.1-.8-.2-1.3-.3l-3-.5-.8,4.8Z"/><path class="d" d="M373.2,55.1c-.3,1.2-.8,2.3-1.5,3.2-.6,.9-1.4,1.7-2.4,2.2s-2,.9-3.2,1c-1.2,.1-2.5,0-3.9-.4-1.4-.4-2.6-.9-3.6-1.6-1-.7-1.7-1.5-2.2-2.5-.5-.9-.8-2-.9-3.1,0-1.1,0-2.3,.4-3.5l3.4-12.6,4.5,1.2-3.3,12.4c-.2,.6-.2,1.3-.2,1.8,0,.6,.2,1.1,.5,1.6,.3,.5,.6,.9,1.1,1.3s1,.6,1.6,.8c.6,.2,1.2,.2,1.7,.1,.6,0,1.1-.3,1.6-.6,.5-.3,.9-.7,1.2-1.2s.6-1,.8-1.7l3.3-12.4,4.5,1.2-3.4,12.6Z"/><path class="d" d="M382.8,44.4l6.6,2.5-.3,14.7h0l9.5-11.2,6.6,2.5-7.5,19.9-4.4-1.7,5.8-15.2h0l-11,13.2-3.3-1.3,.8-17.1h0l-5.8,15.2-4.4-1.7,7.5-19.9Z"/><path class="d" d="M421.3,65.6l-5.3-2.9,2-3.6,14.8,8-2,3.6-5.3-2.9-8.2,15-4.1-2.2,8.2-15Z"/><path class="d" d="M436.1,69.2l6.9,4.5c.9,.6,1.7,1.2,2.4,1.9,.7,.7,1.2,1.5,1.6,2.3,.3,.8,.5,1.7,.4,2.6,0,.9-.5,1.9-1.1,3-.8,1.3-1.8,2.1-3.1,2.6-1.2,.5-2.5,.4-4-.2l-.3,10.5-4.7-3,.9-9.5-1.9-1.3-4.6,7.1-3.9-2.5,11.5-17.9Zm-.8,9.9l2.3,1.5c.4,.2,.7,.5,1.1,.7,.4,.2,.8,.4,1.2,.5,.4,0,.8,0,1.2,0,.4-.1,.7-.4,1-.9,.3-.5,.4-.9,.4-1.3,0-.4-.1-.7-.3-1.1-.2-.3-.5-.6-.8-.9-.3-.3-.7-.5-1-.8l-2.6-1.7-2.6,4.1Z"/><path class="d" d="M459.4,85l3.1,2.4-5.6,22.5-4.2-3.2,1.3-4.7-6.5-5-4.1,2.5-4.1-3.1,20.2-11.2Zm-2.3,6l-6.1,3.7,4.1,3.2,2-6.8Z"/><path class="d" d="M472.3,95.4l3.5,3.1-13.9,16-3.5-3.1,13.9-16Z"/><path class="d" d="M480.2,102.2l4.5,4.5-4.1,16.8h0l10.5-10.4,3.3,3.3-15.1,15-4.3-4.3,4.2-17.2h0l-10.7,10.6-3.3-3.3,15.1-15Z"/><path class="d" d="M498.6,121.2l9.3,11-3.3,2.8-6.3-7.5-3,2.5,5.9,7-3.3,2.8-5.9-7-3.3,2.8,6.6,7.9-3.3,2.8-9.6-11.5,16.3-13.7Z"/><path class="d" d="M511.4,136.8l4.8,6.7c.6,.9,1.2,1.8,1.6,2.7,.4,.9,.6,1.8,.6,2.7,0,.9-.2,1.7-.6,2.6-.4,.8-1.1,1.6-2.1,2.3-1.2,.9-2.5,1.3-3.8,1.3-1.3,0-2.5-.5-3.6-1.6l-4.1,9.6-3.3-4.5,4.3-8.6-1.4-1.9-6.9,5-2.7-3.8,17.2-12.5Zm-4.4,9l1.6,2.2c.2,.3,.5,.7,.8,1.1,.3,.4,.6,.7,1,.9,.3,.2,.7,.3,1.1,.4,.4,0,.8-.1,1.3-.5,.4-.3,.7-.7,.8-1s.2-.7,.1-1.1c0-.4-.2-.8-.4-1.1-.2-.4-.4-.8-.7-1.1l-1.8-2.5-3.9,2.8Z"/><path class="d" d="M526,152.4l-.9-1.5,.7-.4,2.4,3.9-.7,.4-.9-1.5-3.7,2.3-.6-.9,3.7-2.3Zm2.8,2.9l.9,1.4-2.6,3.4h0l4.2-.7,.9,1.4-4.4,2.7-.6-.9,3.7-2.3h0l-4.6,.8-.5-.8,2.8-3.7h0l-3.7,2.3-.6-.9,4.4-2.7Z"/><g><path class="e" d="M172.7,286.8h41.6c5.8,0,11.3,.5,16.4,1.6,5.2,1.1,9.7,2.9,13.5,5.5,3.8,2.6,6.9,6.1,9.2,10.4,2.3,4.4,3.4,9.9,3.4,16.5s-1.1,12-3.2,16.4c-2.1,4.4-5,8-8.7,10.6-3.7,2.6-8.1,4.5-13.1,5.6-5.1,1.1-10.5,1.7-16.4,1.7h-18v43.6h-24.6v-111.9Zm24.6,47.4h16.4c2.2,0,4.3-.2,6.4-.6,2.1-.4,3.9-1.1,5.5-2.1,1.6-1,2.9-2.4,3.9-4.1,1-1.7,1.5-3.9,1.5-6.6s-.7-5.1-2-6.9c-1.3-1.7-3-3.1-5.1-4-2.1-.9-4.3-1.6-6.9-1.8-2.5-.3-5-.4-7.3-.4h-12.6v26.5Z"/><path class="e" d="M327.5,314.1c-2-2.5-4.7-4.4-8.1-5.6-3.4-1.2-6.7-1.8-9.7-1.8s-3.6,.2-5.5,.6c-1.9,.4-3.7,1.1-5.4,2-1.7,.9-3.1,2.1-4.1,3.6-1.1,1.5-1.6,3.3-1.6,5.4,0,3.4,1.3,6,3.8,7.7,2.5,1.8,5.7,3.3,9.6,4.6,3.8,1.3,8,2.5,12.4,3.8,4.4,1.3,8.6,3.1,12.4,5.4,3.8,2.3,7,5.4,9.6,9.3,2.5,3.9,3.8,9.1,3.8,15.6s-1.2,11.6-3.5,16.3c-2.3,4.6-5.4,8.5-9.4,11.5-3.9,3.1-8.5,5.3-13.7,6.8-5.2,1.5-10.7,2.2-16.5,2.2s-14-1.1-20.2-3.3c-6.2-2.2-12-5.8-17.4-10.7l17.5-19.3c2.5,3.4,5.7,6,9.6,7.8,3.8,1.8,7.8,2.8,11.9,2.8s4-.2,6.1-.7c2.1-.5,3.9-1.2,5.5-2.1,1.6-.9,2.9-2.2,4-3.6,1-1.5,1.5-3.2,1.5-5.2,0-3.4-1.3-6-3.9-8-2.6-1.9-5.8-3.6-9.7-5-3.9-1.4-8.1-2.7-12.6-4.1-4.5-1.4-8.7-3.2-12.6-5.5-3.9-2.3-7.1-5.4-9.7-9.2-2.6-3.8-3.9-8.8-3.9-15s1.2-11.3,3.6-15.8c2.4-4.5,5.5-8.3,9.5-11.4,3.9-3.1,8.5-5.3,13.7-6.9,5.2-1.5,10.5-2.3,16-2.3s12.4,.9,18.3,2.7c5.9,1.8,11.2,4.8,16,9l-16.9,18.5Z"/><path class="e" d="M384.6,308.6h-31.9v-21.8h88.5v21.8h-31.9v90.1h-24.6v-90.1Z"/></g><rect class="f" x="31" y="33.2" width="17.1" height="5.8"/><g><path class="e" d="M153.6,171.3c.7-3,1.9-5.9,3.5-8.5,1.6-2.6,3.6-4.9,5.8-6.7-1.7,1.5-3.3,3.2-4.6,5,1-1.4,2-2.6,3.2-3.6,1.2-1.1,2.4-2,3.9-2.9-.4,.4-1,.9-1.6,1.4-.6,.5-1.1,1-1.1,1.3-3,2.7-5.5,6-7.3,9.7-1.8,3.7-2.8,7.7-3,11.8-.4-1.6-.2-3,.1-4.1,.3-1.2,.8-2.2,1.1-3.2"/><path class="e" d="M173.7,151c-.8,.2-1.5,.5-2.3,.8,.8-.3,1.5-.6,2.3-.8"/><path class="e" d="M183.2,204.4c.8,0,1.7-.2,2.5-.3-.8,.2-1.6,.3-2.5,.3"/><path class="e" d="M154.9,181.9l.4,1.4c.5,3.5,1.7,6.9,3.6,10.1-1-1.7-2-3.5-2.7-5.5-.7-1.9-1.2-4-1.2-6"/><path class="e" d="M155.4,178.1c0-3.5,1-7.1,2.7-9.9-1.6,2.9-2.5,6.3-2.7,9.9"/><path class="e" d="M200.5,189.5c0,0,0,0,0-.2,0,0,0-.2,0-.2,.6-.9,1.2-2,1.7-3,0,.3,0,.6-.1,.9-.3,.6-.6,.9-.8,1.2-.2,.3-.5,.7-.7,1.4"/><path class="e" d="M182.3,204.4h0c-.3,0-.6,0-.9,0h-.1c.3,0,.7,0,1,0"/><path class="e" d="M199.7,190.7c-.1,0-.2-.1-.4,0,.4-.5,.8-1,1.2-1.5,0,0,0,.2,0,.2-.1,.4-.6,.9-.7,1.4"/><path class="e" d="M187.7,198.2c-.4,.1-.7,.5-.8,.6-1.1,0-2.1,0-3.3,0-.2,0-.6,.1-.9,.3-.2-.1-.5-.2-.7-.3,2.6,0,5.3-.4,8-1.4-.7,.3-1.4,.6-2.2,.8"/><path class="e" d="M175.6,155.1c2-.6,4.3-.8,6.5-.8,2.2,0,4.4,.4,6.5,.6-2.3-.9-5.2-1.4-7.6-1.5-2.4-.2-4.4,0-4.9-.5-.5-.5,1.2-1,3.7-1.1,1.2,0,2.6,0,3.9,.2,1.3,.2,2.5,.4,3.5,.6q-.5-.2-1-.4c.5,.2,1,.4,1.5,.4-.5-.2-1.3-.5-2-.8-.7-.2-1.4-.5-1.7-.7,.3,0,.7-.1,1-.2-1.4-.6-3.5-1-5.7-1-2.2,0-4.4,.1-6,.2,3.8-.4,7.9-.4,12,.4,4.1,.8,8.2,2.4,11.9,4.8,3.7,2.4,6.9,5.8,9.2,9.7,2.3,3.9,3.6,8.3,3.8,12.7,.7,9.8-3.2,19.3-10,25.7-.7,.6-1.9,1.5-3.3,2.2-1.5,.8-3.1,1.5-4.6,1.9-4.9,2-10.4,2.7-15.9,2.2-5.7-.7-11.1-3.3-15.5-7.2-4.3-3.9-7.6-9-9.5-14.9-.4-1.2-.4-2.7-.2-3.1,.1-.2,.3-.2,.6,.3,.3,.4,.6,1.3,1.1,2.6,1.8,4.4,4.4,8.5,7.8,11.9-.3,0-.9-.6-1.4-1.1-.5-.6-1.1-1.2-1.5-1.6,1,1.5,2,2.8,3.2,3.9,1.2,1.1,2.4,2.2,3.9,3.1-2-1.3-3.8-2.8-5.4-4.5,2,2.1,4.5,4.1,7.2,5.6,2.8,1.6,5.8,2.7,9,3.2,1.1,.2,2.2,.7,3.4,1,1.2,.3,2.6,.4,4.3,0-4.2,0-8.5-.9-12.3-2.5-3.9-1.7-7.4-4.1-10.4-7.1,0,0,0,0,0,0-2.7-2.6-4.6-5.5-6.1-8.8,.5,1,1.1,2,1.5,2.9-2.4-4.7-3.6-9.8-3.6-14.9,.3,3.6,1.2,7.2,2.7,10.6,1.5,3.4,3.5,6.6,6.1,9.2,2.6,2.7,5.7,4.8,9.1,6.3,3.4,1.5,7,2.2,10.6,2.2-2-.3-4.3-.6-6.4-1.1-2.2-.5-4.2-1.3-5.6-2.5,5.7,2.9,12.4,4,18.9,2.7l-1.4,.4c2.1-.1,4.2-.7,6.1-1.5,2-.8,3.8-1.9,5.6-3.1,.3-.2,.6-.4,.9-.6l-.9,.6c-3.2,2.1-6.7,3.5-10.3,4.2,1.6-.5,3.3-1,5.3-1.8-1.1,.2-2.7,.7-4.3,1-2.1,.5-4.2,.8-6.3,.8,3.3-.1,6.4-1,9-2.3-4.1,1.3-8.7,1.9-12.9,1.2,2.4,.2,4.7,.2,7.1-.2,3.9-.5,7.8-1.8,11.2-4.1l-.4,.3c.3-.2,.5-.4,.8-.5,1.3-.9,2.6-1.9,3.7-3.1,1-1,1.8-2.2,2.4-3.5l.4-.6c-.2,.4-.2,.7,.4,0,1.2-1.5,2-3.2,2.7-5.1,.7-1.9,1.2-3.9,1.7-6,.3-1.1,.3-2.6,.2-4.3,0-.4,0-.7,0-.9,0-.4,0-.7-.1-1.1,0-.9-.2-1.7-.5-2.5,.2,.8,.3,1.7,.5,2.5v1c0-.2-.1-.4-.2-.9,.2,3,0,6-.8,8.9-.8,2.9-2.1,5.8-3.7,8.3,.1-.4,.3-.8,.4-1.1-.2,.6-.5,1.1-.8,1.6-1.1,1.6-2.4,3.2-3.9,4.5,.4-.4,.7-.9,1-1.3-2,2-4.3,3.7-6.8,5-2.5,1.3-5.2,2.2-8,2.7-5.3,.6-10.7-.4-15.3-2.8,2.4,1.5,5.2,2.6,8.2,3-4-.4-8-1.8-11.4-4-3.4-2.2-6.3-5.3-8.2-8.8,1.1,1,2.5,2.4,3.5,2.7,.1-.2-1.3-2.2-.3-1.2,1.9,1.8,3.5,3.2,5,4.2,1.5,1,2.9,1.5,4.1,1.3,.3,0-.7-1.1-1.3-2-.6-.9-1-1.8-.3-1.4,1.2,.7,3.3,1.8,5.7,2.4,.7,.3,1.4,.5,2.2,.6,0,0,.3,0,.5,0,2.7,.5,5.2,.3,6.7,.2,.5,0,1.1-.1,1.6-.2,.3,0,.5,0,.8,.1,.3-.2,.6-.4,.9-.5,1.4-.4,2.7-.9,4-1.5,.7-.3,1.5-.6,2.2-.9,0,0-.2-.1-.2-.3,1.5-1,2.8-2.1,3.9-3.5,.6-.5,1.1-.9,1.6-1.2,.2-1,1-2.4,1.7-4,.7-1.6,1.3-3.4,1.5-4.9h0c.3-1.5,.4-3.1,.3-4.7,0-.3,.1-.5,.2-.8-.2-.4-.2-.8-.3-1,0-1.3-.1-2.4-.2-3.5-.1-.2-.5-.4-.6-.8-.2-.8-.6-1.5-.9-2.2-.4-.8-.8-1.7-1.3-2.5-1.6-2.8-3.8-5.2-6.4-7.1,0-.1,0-.3,0-.4-.5-.1-1.1-.6-1.5-.7,0,0,.2,0,.2,0-.7-.2-1.1-.5-1.5-.7-.4-.2-.7-.5-1.3-.8-.3,0-.6,0-.9-.1-.1,0-.3-.1-.4-.2-1.3-1-2.9-1.1-4.6-1.3-1.7-.3-3.4-.4-5.2-.3-1.4,.1-2-.1-3-.1"/><path class="e" d="M202.4,185.7c.6-1.4,1.1-2.8,1.4-4.3-.2,1.6-.4,3.1-1.4,4.3"/><path class="e" d="M169.2,194.9c-.3-.5-.7-1.1-1.1-1.6,2.6,2.5,5.8,4.2,9.4,5.1h0c-1.4-.2-3.1-.9-4.6-1.6-1.5-.7-2.7-1.5-3.7-1.8"/><path class="e" d="M200.5,189.3c0,0,0-.1,0-.2,0,0,0,0,0,0,0,0,0,.2,0,.2"/><path class="e" d="M160.2,192.5l-.2-.4c.6,.9,1.3,1.8,2.1,2.6-.6-.6-1.3-1.4-1.8-2.3"/><path class="e" d="M156.6,181.2c-.3-2.2-.3-4.5,0-6.8,.6-2.9,1.7-5.6,3.3-7.8-2.5,4.3-3.7,9.4-3.4,14.5"/><path class="e" d="M164.8,189.5c-.3-.7-.5-1.4-.8-2.1,.3,.7,.6,1.3,1,2-.2,0-.2,0-.3,.2"/><path class="e" d="M166.8,199.1l-.5-.4c.5,.3,1,.6,1.6,.8-.2,0-.7-.3-1-.4"/><path class="e" d="M162.5,182c0,.5,.1,1.1,.3,1.6-.1-.3-.3-.6-.4-.9,0-.2,.2-.4,.2-.7"/><path class="e" d="M162.8,173.7c.2-.7,.4-1.4,.7-2-.3,.8-.5,1.7-.7,2.5,0-.2,0-.4,0-.5"/><path class="f" d="M169.3,139.7c2.2,.9,4.2,2.3,6,3.9,1.7,1.6,3.2,3.5,4.3,5.4-.9-1.5-2-3-3.2-4.2,.9,1,1.6,1.9,2.3,3,.6,1,1.2,2.2,1.6,3.4-.3-.3-.5-.9-.8-1.4-.3-.5-.6-1-.8-1.1-1.6-2.7-3.8-5.1-6.3-7-2.5-1.9-5.5-3.3-8.5-4,1.3,0,2.3,.3,3.1,.7,.8,.4,1.5,1,2.3,1.3"/><path class="f" d="M181.8,158.1c0-.6-.2-1.2-.3-1.8,.1,.6,.3,1.3,.3,1.8"/><path class="f" d="M139.7,157.4c0,.6,0,1.3-.1,1.9,0-.6,0-1.3,.1-1.9"/><path class="f" d="M161.1,139.2h-1.1c-2.7,0-5.5,.3-8.2,1.3,1.5-.5,3-1,4.6-1.3,1.6-.3,3.2-.3,4.7,0"/><path class="f" d="M163.9,140.2c2.7,.5,5.2,1.8,7.2,3.5-2-1.6-4.5-2.9-7.2-3.5"/><path class="f" d="M148.5,172.8s0,0,.2,0c0,0,.1,0,.2,0,.6,.6,1.3,1.2,2,1.7-.2,0-.4-.1-.6-.2-.4-.3-.6-.6-.8-.8-.2-.2-.5-.4-.9-.7"/><path class="f" d="M139.8,156.7h0c0-.3,0-.5,0-.7h0c0,.2,0,.5-.1,.7"/><path class="f" d="M147.7,172c0,0,.1-.2,.1-.3,.3,.4,.7,.7,1,1.1,0,0-.1,0-.2,0-.3-.2-.6-.6-1-.8"/><path class="f" d="M143.8,161.8c0-.3-.3-.6-.3-.7,.1-.8,.3-1.6,.4-2.5,0-.2,0-.5,0-.8,.1-.2,.2-.3,.3-.5-.4,2-.5,4.1,0,6.3-.1-.6-.2-1.2-.3-1.8"/><path class="f" d="M178.4,158.9c.2,1.6,0,3.4-.4,5.1-.4,1.7-1,3.3-1.4,4.9,1-1.6,1.8-3.7,2.3-5.6,.5-1.8,.7-3.3,1.1-3.6,.4-.3,.6,1.1,.3,3-.1,.9-.4,2-.7,2.9-.3,1-.7,1.9-1,2.6,.2-.4,.2-.4,.5-.7-.2,.4-.5,.7-.5,1.1,.3-.3,.6-.9,.9-1.4,.3-.5,.6-1,.8-1.2,0,.3,0,.5,0,.8,.7-1,1.3-2.5,1.6-4.2,.4-1.6,.5-3.3,.8-4.6-.3,3-.9,6.1-2.1,9.1-1.2,3-3,5.9-5.4,8.3-2.4,2.4-5.4,4.4-8.7,5.5-3.3,1.2-6.9,1.5-10.2,1-7.6-.9-14.2-5.3-18.1-11.4-.3-.6-.8-1.7-1.2-2.9-.4-1.2-.7-2.6-.8-3.8-.8-4.1-.5-8.3,.7-12.4,1.4-4.3,4.2-8,7.8-10.7,3.6-2.7,8-4.5,12.7-5,.9-.1,2.1,0,2.4,.3,.2,.1,0,.3-.3,.4-.4,.1-1.1,.2-2.2,.4-3.6,.7-7.2,2.1-10.2,4.2,.1-.2,.5-.6,1.1-.9,.5-.3,1.1-.6,1.4-.9-1.3,.5-2.4,1.2-3.4,1.9-1,.7-2,1.5-3,2.5,1.3-1.3,2.7-2.5,4.2-3.5-1.9,1.2-3.8,2.8-5.4,4.7-1.6,1.9-2.9,4-3.8,6.4-.3,.8-.8,1.6-1.2,2.5-.4,.9-.7,1.9-.6,3.3,.6-3.2,1.9-6.3,3.8-9,1.8-2.7,4.2-5,6.9-6.8,0,0,0,0,0,0,2.4-1.6,4.9-2.7,7.6-3.3-.8,.2-1.7,.5-2.4,.7,3.9-1.1,8-1.3,11.9-.5-2.8-.3-5.7-.2-8.5,.5-2.8,.6-5.5,1.7-7.9,3.3-2.4,1.6-4.5,3.6-6.2,6-1.6,2.4-2.7,5-3.2,7.7,.6-1.5,1.1-3.2,1.8-4.7,.7-1.6,1.7-3,2.7-3.9-3.1,3.9-4.9,8.8-4.8,14v-1.1c-.3,1.6-.2,3.3,.1,4.9,.3,1.6,.9,3.2,1.5,4.7,.1,.3,.2,.5,.3,.8l-.3-.8c-1.1-2.7-1.7-5.6-1.7-8.5,.1,1.3,.3,2.7,.6,4.3,0-.9-.1-2.2-.1-3.4,0-1.7,0-3.3,.3-4.9-.4,2.5-.2,5.1,.4,7.2-.4-3.3-.2-6.9,1-10-.5,1.8-.8,3.6-.9,5.4-.2,3.1,.2,6.2,1.4,9.1l-.2-.3c0,.2,.2,.4,.3,.7,.5,1.1,1.1,2.2,1.8,3.3,.6,.9,1.4,1.7,2.3,2.4l.4,.4c-.3-.2-.5-.2,0,.3,.9,1.1,2.2,2,3.5,2.8,1.3,.8,2.8,1.5,4.3,2.2,.8,.4,2,.7,3.2,.8,.3,.1,.5,.1,.7,0,.3,0,.6,0,.8,0,.7,0,1.3,0,2,0-.7,0-1.3,0-2,0h-.8c.2-.1,.4-.2,.7-.2-2.3-.3-4.6-.9-6.7-1.9-2.1-1-4.1-2.4-5.8-4.1,.3,.1,.6,.4,.8,.4-.4-.3-.8-.5-1.1-.8-1.1-1.1-2-2.3-2.9-3.6,.3,.4,.6,.7,.9,.9-1.2-1.8-2.2-3.8-2.8-5.9-.6-2.1-.9-4.3-.9-6.5,.3-4.1,1.9-8.1,4.4-11.2-1.5,1.6-2.7,3.6-3.5,5.8,.9-3,2.5-5.8,4.7-8.1,2.2-2.3,4.9-4,7.9-4.9-1,.7-2.2,1.6-2.6,2.3,.1,.1,1.8-.6,.9,0-1.6,1.2-3,2.2-3.9,3.2-1,1-1.6,2-1.6,2.9,0,.2,.9-.3,1.7-.7,.8-.4,1.5-.5,1.1,0-.7,.8-1.8,2.2-2.7,4-.3,.5-.6,1-.8,1.5,0,0,0,.2,0,.4-.7,2-1,4-1.1,5.1,0,.4,0,.8,0,1.2,0,.2-.1,.4-.2,.6,0,.3,.2,.5,.2,.8,0,1.1,.2,2.2,.5,3.2,0,.6,.2,1.2,.4,1.8,0,0,.1-.2,.2,0,.5,1.3,1.2,2.4,2.1,3.5,.3,.5,.5,1,.7,1.4,.8,.3,1.7,1.1,2.8,1.9,1.1,.8,2.4,1.5,3.5,1.9h0c1.1,.4,2.3,.7,3.5,.9,.2,0,.4,.2,.5,.3,.3,0,.6,0,.8-.1,1,.1,1.8,.3,2.7,.3,.1,0,.4-.3,.7-.4,.6,0,1.3-.2,1.8-.4,.7-.2,1.4-.4,2.1-.6,2.3-.8,4.5-2.1,6.3-3.8,.1,0,.2,0,.3,.1,.2-.4,.6-.7,.8-1,0,0,0,.1,0,.2,.3-.5,.5-.8,.7-1,.2-.2,.5-.5,.8-.9,.1-.2,.1-.4,.2-.7,0,0,.1-.2,.2-.3,1-.8,1.3-2,1.7-3.3,.5-1.3,.8-2.6,1-3.9,.1-1.1,.4-1.5,.6-2.3"/><path class="f" d="M151.2,174.8c1,.7,2,1.3,3.1,1.7-1.2-.4-2.3-.8-3.1-1.7"/><path class="f" d="M149,148.2c.5-.1,.9-.3,1.4-.6-2.3,1.6-4.1,3.8-5.2,6.4h0c.4-1.1,1.2-2.2,2-3.2,.8-1,1.6-1.9,1.9-2.6"/><path class="f" d="M148.7,172.8c0,0,.1,0,.2,0h0c0,0-.1,0-.2,0"/><path class="f" d="M152.2,141.7h.3c-.8,.2-1.6,.6-2.3,1.1,.6-.4,1.3-.8,2-1.1"/><path class="f" d="M161.4,140.6c1.8,.1,3.5,.5,5.2,1.1,2.1,.9,4,2.1,5.4,3.7-2.9-2.5-6.6-4.2-10.6-4.7"/><path class="f" d="M153.8,145.6c.6-.1,1.2-.2,1.7-.3-.6,.1-1.1,.3-1.7,.5,0-.1,0-.2,0-.2"/><path class="f" d="M146.2,145.7l.4-.4c-.3,.3-.6,.7-.8,1.1,0-.1,.3-.5,.5-.7"/><path class="f" d="M159.9,145c-.4,0-.8,0-1.3,0,.2,0,.5-.1,.7-.2,.1,.1,.3,.2,.5,.3"/><path class="f" d="M166.2,146.4c.5,.3,1,.5,1.4,.8-.6-.3-1.2-.6-1.8-.9,.2,0,.3,0,.4,0"/></g><g><path class="e" d="M245.9,170.9c-.6-.8-1.4-1.3-2.5-1.7-1-.4-2-.6-3-.6s-1.1,0-1.7,.2c-.6,.1-1.1,.3-1.6,.6-.5,.3-.9,.6-1.3,1.1-.3,.5-.5,1-.5,1.6,0,1,.4,1.8,1.2,2.4,.8,.5,1.7,1,2.9,1.4,1.2,.4,2.4,.8,3.8,1.2,1.4,.4,2.6,.9,3.8,1.6,1.2,.7,2.1,1.7,2.9,2.8,.8,1.2,1.2,2.8,1.2,4.8s-.4,3.6-1.1,5c-.7,1.4-1.7,2.6-2.9,3.5-1.2,.9-2.6,1.6-4.2,2.1s-3.3,.7-5,.7-4.3-.3-6.2-1c-1.9-.7-3.7-1.8-5.3-3.3l5.4-5.9c.8,1,1.7,1.8,2.9,2.4,1.2,.6,2.4,.8,3.6,.8s1.2,0,1.9-.2c.6-.1,1.2-.4,1.7-.7,.5-.3,.9-.7,1.2-1.1,.3-.4,.5-1,.5-1.6,0-1-.4-1.8-1.2-2.4-.8-.6-1.8-1.1-3-1.5-1.2-.4-2.5-.8-3.9-1.3-1.4-.4-2.7-1-3.9-1.7-1.2-.7-2.2-1.6-3-2.8-.8-1.2-1.2-2.7-1.2-4.6s.4-3.4,1.1-4.8c.7-1.4,1.7-2.5,2.9-3.5,1.2-.9,2.6-1.6,4.2-2.1,1.6-.5,3.2-.7,4.9-.7s3.8,.3,5.6,.8c1.8,.5,3.4,1.5,4.9,2.8l-5.2,5.6Z"/><path class="e" d="M271.7,180.9c-.4-.5-.9-.9-1.5-1.3-.6-.3-1.3-.5-2.1-.5-1.8,0-3.3,.5-4.3,1.6-1,1.1-1.5,2.5-1.5,4.3s.5,3.2,1.5,4.3c1,1.1,2.4,1.6,4.3,1.6s1.5-.2,2.1-.5c.6-.4,1.1-.8,1.5-1.3l4.8,5c-1.1,1.2-2.5,2-4,2.4s-3,.7-4.4,.7-3.5-.3-5.1-.9-3-1.4-4.2-2.5c-1.2-1.1-2.1-2.4-2.8-3.9-.7-1.5-1-3.2-1-5.1s.3-3.6,1-5.1c.7-1.5,1.6-2.8,2.8-3.9,1.2-1.1,2.6-1.9,4.2-2.5,1.6-.6,3.3-.9,5.1-.9s2.8,.2,4.4,.7c1.5,.5,2.9,1.3,4,2.4l-4.8,5Z"/><path class="e" d="M279.1,173.3h7.2v3.8h0c.8-1.4,1.7-2.5,2.8-3.3,1.1-.7,2.4-1.1,4-1.1s.8,0,1.3,0c.4,0,.8,0,1.2,.2v6.6c-.5-.2-1-.3-1.5-.4-.5,0-1-.1-1.6-.1-1.4,0-2.5,.2-3.3,.6-.8,.4-1.4,.9-1.9,1.6-.4,.7-.7,1.5-.8,2.5-.1,1-.2,2-.2,3.2v9.8h-7.2v-23.5Z"/><path class="e" d="M321.3,196.7h-6.9v-3.2h0c-.3,.5-.6,.9-1,1.4-.4,.5-.9,.9-1.5,1.2-.6,.4-1.2,.6-2,.9-.7,.2-1.5,.3-2.4,.3-1.8,0-3.3-.3-4.5-.8-1.1-.6-2-1.3-2.7-2.3-.6-1-1-2.2-1.3-3.5s-.3-2.8-.3-4.4v-12.9h7.2v11.5c0,.7,0,1.4,0,2.1,0,.7,.2,1.4,.4,2,.2,.6,.6,1.1,1.1,1.5,.5,.4,1.2,.6,2.1,.6s1.7-.2,2.3-.5c.6-.3,1-.8,1.3-1.4,.3-.6,.5-1.2,.6-1.9,0-.7,.1-1.4,.1-2.2v-11.7h7.2v23.5Z"/><path class="e" d="M326.4,173.3h6.9v3.2h0c.2-.4,.5-.9,1-1.4,.4-.5,.9-.9,1.5-1.2,.6-.4,1.2-.6,2-.9,.7-.2,1.5-.3,2.4-.3,1.6,0,3.1,.3,4.4,1,1.3,.7,2.2,1.7,2.9,3.2,.8-1.5,1.8-2.6,3-3.2,1.2-.6,2.7-1,4.4-1s2.9,.3,4,.8c1.1,.5,1.9,1.3,2.6,2.2,.6,.9,1.1,2,1.4,3.2,.3,1.2,.4,2.6,.4,4v13.8h-7.2v-13.7c0-1.1-.2-2-.7-2.8-.5-.8-1.3-1.2-2.5-1.2s-1.5,.1-2.1,.4c-.6,.3-1,.7-1.4,1.1s-.6,1-.7,1.7c-.1,.6-.2,1.3-.2,2v12.4h-7.2v-12.4c0-.4,0-.9,0-1.5,0-.6-.1-1.2-.3-1.7-.2-.5-.5-1-.9-1.4-.4-.4-1.1-.6-1.9-.6s-1.7,.2-2.3,.5c-.6,.3-1,.8-1.3,1.4-.3,.6-.5,1.2-.6,1.9,0,.7-.1,1.4-.1,2.2v11.7h-7.2v-23.5Z"/></g><g><path class="e" d="M372.5,197c-.9,0-1.6-.3-2.2-.9-.6-.6-.9-1.4-.9-2.2s.3-1.6,.9-2.2c.6-.6,1.4-.9,2.2-.9s1.6,.3,2.2,.9,.9,1.4,.9,2.2-.3,1.6-.9,2.2-1.4,.9-2.2,.9Z"/><path class="e" d="M381.4,185.3c0-1.7,.3-3.2,.9-4.7,.6-1.4,1.5-2.7,2.6-3.8,1.1-1.1,2.4-2,3.9-2.6,1.5-.6,3.1-.9,4.8-.9s3.3,.3,4.8,.9c1.5,.6,2.8,1.5,3.9,2.6,1.1,1.1,2,2.4,2.6,3.8,.6,1.4,.9,3,.9,4.7s-.3,3.2-.9,4.7c-.6,1.5-1.5,2.7-2.6,3.8-1.1,1.1-2.4,1.9-3.9,2.6-1.5,.6-3.1,.9-4.8,.9s-3.3-.3-4.8-.9c-1.5-.6-2.8-1.5-3.9-2.6s-2-2.3-2.6-3.8c-.6-1.5-.9-3-.9-4.7Zm4.6,0c0,1.2,.2,2.2,.5,3.2,.4,1,.9,1.8,1.5,2.5,.6,.7,1.4,1.2,2.4,1.6,.9,.4,2,.6,3.1,.6s2.2-.2,3.1-.6c.9-.4,1.7-.9,2.4-1.6,.6-.7,1.1-1.5,1.5-2.5,.4-1,.5-2.1,.5-3.2s-.2-2.2-.5-3.2c-.4-1-.9-1.8-1.5-2.5-.6-.7-1.4-1.2-2.4-1.6-.9-.4-2-.6-3.1-.6s-2.2,.2-3.1,.6c-.9,.4-1.7,.9-2.4,1.6-.6,.7-1.1,1.5-1.5,2.5-.4,1-.5,2.1-.5,3.2Z"/><path class="e" d="M411.2,173.9h4.3v3.5h0c.3-.6,.7-1.2,1.2-1.7,.5-.5,1-.9,1.6-1.3,.6-.4,1.2-.6,2-.8,.7-.2,1.4-.3,2.1-.3s1.3,0,1.9,.3l-.2,4.7c-.4,0-.7-.2-1.1-.2s-.7,0-1.1,0c-2.1,0-3.7,.6-4.9,1.8-1.1,1.2-1.7,3-1.7,5.5v11.5h-4.3v-22.9Z"/></g><path class="e" d="M451.1,196.5c0,1.7-.3,3.3-.9,4.8-.6,1.4-1.4,2.7-2.5,3.7-1.1,1-2.4,1.9-4,2.4-1.5,.6-3.2,.9-5.1,.9s-4.2-.3-6-.9c-1.8-.6-3.5-1.7-5.2-3.2l2.9-3.7c1.1,1.2,2.3,2.1,3.7,2.8,1.3,.6,2.8,.9,4.5,.9s2.9-.2,4-.7c1.1-.5,1.9-1.1,2.5-1.8,.6-.7,1.1-1.6,1.3-2.5,.3-.9,.4-1.9,.4-2.9v-3.4h-.1c-.8,1.4-2,2.4-3.4,3.1-1.4,.7-2.9,1-4.5,1s-3.2-.3-4.7-.9c-1.4-.6-2.7-1.4-3.7-2.5-1-1-1.8-2.3-2.4-3.7-.6-1.4-.9-3-.9-4.7s.3-3.2,.8-4.7c.5-1.5,1.3-2.7,2.3-3.8,1-1.1,2.2-1.9,3.7-2.6,1.4-.6,3-.9,4.8-.9s3,.3,4.5,1c1.5,.7,2.6,1.6,3.4,2.8h0v-3.3h4.3v22.7Zm-11.9-19.2c-1.2,0-2.2,.2-3.1,.6-.9,.4-1.7,.9-2.4,1.6-.6,.7-1.1,1.5-1.5,2.5-.4,1-.5,2.1-.5,3.2,0,2.3,.7,4.2,2,5.6,1.3,1.4,3.2,2.1,5.5,2.1s4.2-.7,5.5-2.1c1.4-1.4,2-3.3,2-5.6s-.2-2.2-.5-3.2c-.4-1-.9-1.8-1.5-2.5-.6-.7-1.4-1.2-2.4-1.6-.9-.4-2-.6-3.1-.6Z"/><path class="e" d="M458.7,169h1.7l1.2,3.2,1.2-3.2h1.7v4.8h-1.3v-3.2h0l-1.2,3.2h-.8l-1.2-3.2h0v3.2h-1.3v-4.8Zm-3.7,1.1h-1.4v-1.1h4.1v1.1h-1.4v3.7h-1.3v-3.7Z"/></g></svg>